# xmcd
#
# Track frame offsets:
# 150
# 16293
# 31589
# 47324
# 65082
# 83099
# 102039
# 117335
# 132209
# 146362
# 160318
# 178693
# 195531
# 213523
#
# Disc length: 3045 seconds
#
#
# Revision: 0
# Processed by: cddbd v1.5.1PL0 Copyright (c) Steve Scherf et al.
# Submitted via: FreeRIP 2.942 
#
DISCID=b30be30e
DTITLE=Various Artist - Country Hits Volume 2
DYEAR=2005
DGENRE=Country
TTITLE0=Toby Keith - Honky Tonk U
TTITLE1=Alan Jackson - Monday Morning Church
TTITLE2=Montgomery Gentry - Gone
TTITLE3=Brooks and Dunn - It's Getting Better All The Time
TTITLE4=Kenny Chesney - Anything But Mine
TTITLE5=Martina McBride - God's Will
TTITLE6=Trace Adkins - Songs About Me
TTITLE7=Buddy Jewell - Any Other Woman
TTITLE8=Julie Roberts - Wake Up Older
TTITLE9=Keith Anderson - Pickin' Wildflowers
TTITLE10=Blaine Larsen - How Do You Get That Lonely
TTITLE11=Katrina Elam - I Want A Cowboy
TTITLE12=Lonestar - Class Reunion(That Used To Be Us)
TTITLE13=Blake Shelton - Goodbye Times
EXTD=
EXTT0=
EXTT1=
EXTT2=
EXTT3=
EXTT4=
EXTT5=
EXTT6=
EXTT7=
EXTT8=
EXTT9=
EXTT10=
EXTT11=
EXTT12=
EXTT13=
PLAYORDER=
